# xmcd
#
# Track frame offsets: 
#        150
#        14320
#        28698
#        43991
#        60383
#        76548
#        89237
#        98136
#        112897
#        132330
#        144704
#        161757
#        177895
#        194323
#
# Disc length: 2715 seconds
#
# Revision: 1
# Processed by: cddbd v1.5.2PL0 Copyright (c) Steve Scherf et al.
# Submitted via: ExactAudioCopy v0.99pb3
#
DISCID=b80a990e
DTITLE=Gruff, The - The Gruff
DYEAR=2006
DGENRE=Folk
TTITLE0=Siren Smile
TTITLE1=General Store
TTITLE2=More Than Weary
TTITLE3=King Of Clubs
TTITLE4=Silver Dagger
TTITLE5=Party Song
TTITLE6=J-Root Leaner
TTITLE7=House Of Cards
TTITLE8=Handsome Molly
TTITLE9=East For The Winter
TTITLE10=Ginger Set
TTITLE11=Owl Song
TTITLE12=Just For The Record
TTITLE13=Lucky Moon
EXTD=
EXTT0=
EXTT1=
EXTT2=
EXTT3=
EXTT4=
EXTT5=
EXTT6=
EXTT7=
EXTT8=
EXTT9=
EXTT10=
EXTT11=
EXTT12=
EXTT13=
PLAYORDER=
